<svg xmlns="http://www.w3.org/2000/svg" width="22" height="23" fill="none" viewBox="0 0 22 23">
    <g fill="#FF7A00" clip-path="url(#clip0)">
        <path fill-rule="evenodd" d="M15.28 12.583c1.256.891 2.136 2.098 2.136 3.708v2.875h3.667v-2.875c0-2.089-3.273-3.325-5.803-3.708z" clip-rule="evenodd"/>
        <path d="M8.25 11.5c2.025 0 3.666-1.716 3.666-3.833 0-2.118-1.641-3.834-3.666-3.834S4.583 5.55 4.583 7.667c0 2.117 1.642 3.833 3.667 3.833z"/>
        <path fill-rule="evenodd" d="M13.75 11.5c2.025 0 3.666-1.716 3.666-3.833 0-2.118-1.64-3.834-3.667-3.834-.43 0-.834.096-1.219.23.761.987 1.22 2.243 1.22 3.604 0 1.36-.459 2.616-1.22 3.603.385.134.789.23 1.22.23zM8.25 12.458c-2.448 0-7.333 1.284-7.333 3.834v2.875h14.666v-2.875c0-2.55-4.886-3.834-7.333-3.834z" clip-rule="evenodd"/>
    </g>
    <defs>
        <clipPath id="clip0">
            <path fill="#fff" d="M0 0H22V23H0z"/>
        </clipPath>
    </defs>
</svg>
