<svg xmlns="http://www.w3.org/2000/svg" width="33" height="33" fill="none" viewBox="0 0 33 33">
    <g clip-path="url(#clip0)">
        <path fill="#fff" d="M16.5 2.75C8.924 2.75 2.75 8.924 2.75 16.5S8.924 30.25 16.5 30.25s13.75-6.174 13.75-13.75S24.076 2.75 16.5 2.75zm0 24.75c-6.064 0-11-4.936-11-11s4.936-11 11-11 11 4.936 11 11-4.936 11-11 11zm4.125-11c0 2.282-1.843 4.125-4.125 4.125-2.283 0-4.125-1.843-4.125-4.125 0-2.283 1.842-4.125 4.125-4.125 2.282 0 4.125 1.842 4.125 4.125z"/>
    </g>
    <defs>
        <clipPath id="clip0">
            <path fill="#fff" d="M0 0H33V33H0z"/>
        </clipPath>
    </defs>
</svg>
