<svg xmlns="http://www.w3.org/2000/svg" width="166" height="28" fill="none" viewBox="0 0 166 28">
    <path fill="#fff" d="M0 0H166V28H0z"/>
    <path fill="#000" d="M15.81 21.841c0 .146-.04.256-.12.329-.08.073-.174.118-.28.136H12.15v-9.853H3.74v9.388c0 .31-.152.466-.454.466H0V0h3.739v9.306h8.412V0h3.659v21.841zM26.172.027h4.593l8.466 22.006c.071.182.018.274-.16.274H35.44l-2.11-5.83h-9.454l-1.789 5.611c-.071.146-.17.22-.294.22h-3.658L26.172.027zM32.26 13.33l-3.605-9.881c-.036-.055-.076-.082-.12-.082-.045 0-.085.027-.12.082l-3.445 9.88h7.29zM45.106 21.841c0 .329-.143.493-.428.493h-3.364V.054h3.792v21.787zM60.167 18.831c0 .164.09.246.267.246h9.962v2.738c0 .145-.054.269-.16.369-.107.1-.223.15-.347.15H57.364c-.303-.018-.544-.123-.721-.314-.178-.192-.267-.416-.267-.671V.027h3.792v18.804zM85.056 21.102c0 .31-.089.575-.267.794-.178.219-.418.328-.72.328l-7.398.082c-.624 0-1.189-.059-1.696-.178-.507-.119-.947-.328-1.322-.63-.374-.3-.663-.707-.868-1.218-.204-.51-.306-1.15-.306-1.915v-3.203c0-.51.106-.976.32-1.396.213-.42.507-.78.88-1.081.375-.301.815-.534 1.323-.698.507-.164 1.054-.255 1.642-.274.837-.017 1.656-.013 2.457.014.802.027 1.602.06 2.403.096v-.63c0-.4-.053-.72-.16-.957-.107-.237-.28-.415-.52-.534-.24-.118-.566-.196-.975-.232-.41-.037-.918-.055-1.523-.055-.82 0-1.629.014-2.43.041-.801.028-1.558.087-2.27.179V6.569c.712-.073 1.424-.132 2.137-.178.712-.045 1.424-.068 2.136-.068.712 0 1.446.013 2.203.04.757.028 1.456.124 2.096.288.641.164 1.202.43 1.683.794.48.365.801.885.96 1.56.108.437.17.889.188 1.354.018.466.026.935.026 1.41v9.333h.001zm-3.552-6.13c-.623-.037-1.255-.069-1.896-.096-.64-.027-1.273-.023-1.896.014-.623.036-1.064.16-1.322.37s-.396.524-.414.944l-.026 1.341c-.036 1.095.462 1.642 1.495 1.642.64.037 1.278.041 1.91.014.631-.027 1.268-.06 1.909-.096.16 0 .24-.082.24-.246v-3.887zM92.32 6.46c1.069-.055 2.146-.083 3.232-.083 1.175 0 2.163.1 2.964.301.802.201 1.447.53 1.937.985.489.456.845 1.054 1.068 1.793.222.74.333 1.639.333 2.697v4.652c0 1.953-.48 3.358-1.442 4.215-.96.857-2.385 1.286-4.273 1.286l-6.595-.136c-.303 0-.54-.119-.708-.356-.17-.238-.254-.493-.254-.767V.11h3.739v6.35zm3.018 3.038c-.534-.018-1.046-.014-1.535.014-.49.027-.985.059-1.482.095v9.197c0 .182.115.273.347.273l3.178.055c.783 0 1.38-.169 1.79-.506.409-.338.613-.962.613-1.875v-4.735c0-.602-.084-1.072-.254-1.41-.17-.338-.392-.588-.668-.753-.276-.164-.587-.264-.934-.301-.347-.036-.698-.054-1.055-.054zM118.679 14.233c0 .511-.156.93-.467 1.258-.312.329-.681.493-1.108.493h-8.893v.247c0 .71.164 1.268.494 1.67.329.401.743.698 1.242.89.498.19 1.05.318 1.655.382.605.065 1.184.105 1.736.123.516.018.992.018 1.429 0 .436-.018.855-.04 1.255-.068.401-.027.784-.063 1.148-.11.365-.045.743-.095 1.135-.15v2.518c0 .346-.187.547-.561.602-.944.146-1.753.232-2.43.26-.677.027-1.406.04-2.189.04-2.974 0-5.137-.556-6.49-1.669-1.353-1.113-2.03-2.755-2.03-4.927V12.48c0-1.04.192-1.943.574-2.71.383-.765.873-1.399 1.469-1.901.597-.502 1.273-.876 2.03-1.123.756-.246 1.509-.37 2.256-.37h1.282c.802 0 1.589.116 2.364.343.774.228 1.464.565 2.069 1.013.605.447 1.095 1.012 1.469 1.697.374.684.561 1.483.561 2.395v2.409zm-7.397-4.708c-.961 0-1.714.21-2.256.63-.544.42-.815 1.168-.815 2.244v.466h6.81c.195 0 .293-.092.293-.275v-.437c0-.53-.076-.963-.227-1.3-.151-.338-.356-.607-.614-.808-.258-.2-.561-.337-.908-.41-.348-.073-.726-.11-1.135-.11h-1.148zM125.542 21.595c0 .2-.058.37-.174.506-.116.137-.245.206-.387.206h-3.205V0h3.766v21.595zM133.046 4.407h-4.006V0h4.006v4.407zm-.133 17.352c0 .365-.17.548-.507.548h-3.152V6.35h3.659v15.41zM149.71 21.814c0 .146-.035.265-.107.356-.071.091-.178.137-.32.137h-3.205v-9.963c0-1.095-.271-1.838-.815-2.23-.543-.393-1.304-.589-2.283-.589l-2.483.055c-.143 0-.214.064-.214.191v12.07c0 .311-.133.467-.4.467h-3.312V7.335c0-.255.076-.469.227-.643.151-.173.352-.26.601-.26l6.463-.082c1.085 0 2.003.1 2.751.301.748.201 1.352.52 1.816.958.462.438.792 1.017.988 1.738.196.722.294 1.602.294 2.642v9.825h-.001zM166 22.198c0 1.295-.196 2.326-.587 3.093-.393.766-.918 1.35-1.576 1.751-.659.401-1.425.662-2.297.78-.872.119-1.789.178-2.751.178-.801 0-1.598-.032-2.39-.096-.793-.064-1.589-.15-2.391-.26V24.47c.855.11 1.727.205 2.618.287.89.083 1.691.133 2.403.151.463 0 .903-.027 1.322-.082.418-.055.783-.16 1.095-.315.312-.155.556-.356.734-.602.178-.246.267-.552.267-.917v-.766c-.516.055-1.046.1-1.589.137-.542.036-1.081.055-1.615.055-1.104 0-2.062-.1-2.871-.301-.811-.202-1.483-.534-2.017-1-.534-.465-.935-1.067-1.202-1.807-.267-.739-.4-1.646-.4-2.723v-4.461c0-.894.098-1.697.294-2.409.195-.711.516-1.314.961-1.806.445-.493 1.019-.867 1.722-1.123.703-.255 1.553-.392 2.55-.41 1.015-.018 2.047-.014 3.098.014 1.051.027 2.119.059 3.205.095.374.019.703.137.988.356.285.219.427.557.427 1.013v14.343H166zM162.154 9.66c-.569-.036-1.13-.068-1.682-.095-.552-.028-1.113-.032-1.682-.014-.41 0-.77.037-1.082.11-.312.072-.579.19-.801.356-.223.164-.392.396-.508.697-.115.301-.173.69-.173 1.163v4.845c0 .95.214 1.601.641 1.957.427.356 1.139.533 2.136.533.552 0 1.122-.004 1.709-.013.587-.01 1.166-.06 1.736-.15V9.88c0-.145-.098-.219-.294-.219z"/>
</svg>
